<svg xmlns="http://www.w3.org/2000/svg" viewBox="0 0 247.9 130.4" height="126" width="241"><path fill="#679d42" d="M247.4 108.5c-.6-1.5-1.1-3.5-.7-4.8a23.1 23.1 0 0 0 .2-6.1 27.7 27.7 0 0 1 .2-6.8 18.3 18.3 0 0 0 .5-4.5 26.1 26.1 0 0 0-.6-7.1c-.4-2.2-.5-9.5.1-12s.3-4.3 0-6.9c-.9-6.7-3.3-9.8-3.9-10.3s-1.1-.5-1.1-5.6-.6-15.9-2.8-18.1c0 0-3-2.4-4.7-2.6a4.1 4.1 0 0 1-2.5-1.1 3.8 3.8 0 0 0 1.7-2.3l.7-3.3a14.1 14.1 0 0 0 .3-5.2s-.8-4.1-6.2-4.1-6.8 3.4-6.8 3.4.4.9.2 1.2-.3.7-.1.9a1.5 1.5 0 0 1 .5 1.8 10.5 10.5 0 0 0 0 5s.8 1.9 1.6 1.9a2.1 2.1 0 0 1 1.5 1l-2.2.8c-1.1.5-2.5-.3-3.2-1.1a2.2 2.2 0 0 0-1.6-.6 1.2 1.2 0 0 0-.9-1.2l-1.5-1.1a3.9 3.9 0 0 0-2.9-1.1 9.5 9.5 0 0 1-1.4-2.3c-.3-.5.2-.4.5-.2s.4 0 .3-.3-.2-.1.2-.9 1.5-4.9 0-8c-2.7-5.5-9.5-.7-10-.3s-.7.8-.6 1.5a24.9 24.9 0 0 0 .2 4.1 2 2 0 0 1 .1 1.7c-.6.6 0 2.2 0 2.2l1 2.5s.4 1 1.1.9a1.2 1.2 0 0 1 1.3.8 2 2 0 0 0-1.3.7c-.7.7-4.2 3.3-4.2 3.3a3.1 3.1 0 0 0-1 1.3 29.9 29.9 0 0 0-.1 13.3c-.7.9-.6 3.4-.6 3.4l-1.1.7c-.5.2-.8.6-1 1.7s-.8 1.1-.9.9a1.2 1.2 0 0 0-1-.1 7.3 7.3 0 0 1-.3-2.1v-2.8c1.2-.1 2.1-2.1 2.1-3.3a4.2 4.2 0 0 0-1.6-4.1c.7-2.3.5-5.7-1.4-7.2a1.1 1.1 0 0 1 0-1.9c.8-.6.6-2.4 0-3a2.6 2.6 0 0 1-.5-2.1 2 2 0 0 0 .1-1.5 3.8 3.8 0 0 1-.3-2.4c.3-1.2.1-2-2-3.5 4.5-3.4 3.6-5.2 1.4-6.9l-1.4-.8c-.7-5.5-6.5-3.8-8.4-2.9s-1.8 3.4-1.5 4a6 6 0 0 1 .6 2 11.3 11.3 0 0 0 .5 3.1 4.3 4.3 0 0 0 2.8 2.3 10.9 10.9 0 0 1-2.4 1.4 6.7 6.7 0 0 0-2.3 2.2c-1.9 3.3-6.2.5-6.2.5a6.6 6.6 0 0 1-.1-5 7.5 7.5 0 0 0 .5-3.5l-.3-1.7s-.7-3.6-3-4.8a5.9 5.9 0 0 0-7.8 1.8c-1.4 1.7-.4 5-.4 5l-.7.3a5.3 5.3 0 0 1 1.2 2.4v1.2a6.3 6.3 0 0 0 1.2 2.9c-.8.8.3 3 .3 3l-3.6 1.7c-6.1 3-2.5 12.5-2.5 12.5-1.9-.1-3.2.7-4.4 3.4-.2-.6-1.9-.8-2.7-.9s-1.1-.5-.9-1a11.9 11.9 0 0 1 1-2 2.4 2.4 0 0 0 .2-2.4 9 9 0 0 1-.3-1.9c-.3-1.3-.8-3.2-2.9-3.3s-3.2 1.6-4 3.3-.5 3.6 0 4.2a3.4 3.4 0 0 1 .7 1.9c.1.5-.2.5-.6.6a7.9 7.9 0 0 0-3.4 1.5l-2 1.3s-.7-1 .4-2.9l1.2-2.5a10.5 10.5 0 0 0 .3-7.9c-1.1-3-4.5-2.6-6.9-2.3s-2.9 2-3 3.3l-.3 3.7a2.2 2.2 0 0 0 0 2.6l.9 1.3V35c-.1.9-.2.8-.8.5l-5.8-2s-.5-1.4-1.6-2.4a2.7 2.7 0 0 1-.4-3 2.6 2.6 0 0 0 0-2.3c-.4-.5-.4-.8-.3-2.3 0 0 .2-2.1-.5-2.7-2.7-2.5-5.7-2.6-7.3-1l-2.9 2.8a3.1 3.1 0 0 0-.6 2c0 .5.2.7.8.7a.8.8 0 0 1 .9 1c-.3 2.4 1.5 6.1 1.5 6.1s-2 2.9-4.3 3.9c-7-2-6.9 2.4-7.2 4.7a3.8 3.8 0 0 1-.9 2.2c-.3.3-.5.5-.1 1s.3 1.1-.4 1-1.7-.6-3.1-1.8a8.3 8.3 0 0 0-3.2-1.6 18.5 18.5 0 0 0-1.5-7.1c-1.6-3.8-6.2-2.8-6.8 1.8l-.5 4.4a1.4 1.4 0 0 0-1.9.3c-.4.4-.8.2-1.5-.4a26.1 26.1 0 0 0-3-2.3c-.3 0-1.1-.4-.3-.4s1-1.6 1-2.9a2.6 2.6 0 0 1 .6-2c.2 3.5 2.9 4.4 3.1 4s.4-1.9-1.2-3.1c.2-6.7-1.4-8.1-1.4-8.1a2 2 0 0 0 .7-2.4c-2.6-5.5-6.2-6.4-6.2-6.4a7.2 7.2 0 0 0 2.4-5.4c0-1.1 1.4-.9 1.4-.9a1 1 0 0 0 0-2C77.9 7.6 79 7 77.2 6.5c-5.2-1.5-7 1.4-7.1 5.2A9.8 9.8 0 0 1 70 14c.3 0 .4.6.4.6l.7 1.5c.5-.6 1.2.3 1.2.3a7.2 7.2 0 0 0-1.9 1.1 4.5 4.5 0 0 1-1.5.7c-.5 0-.7-.3-1.6 1.1a11.8 11.8 0 0 1-2 2.7 1.6 1.6 0 0 0-.5 1.4 2.5 2.5 0 0 1-.6 1.9 7.3 7.3 0 0 1-1.1 1.5 13.7 13.7 0 0 0-2 4.8 3.7 3.7 0 0 1-.9 1.9c-.4.5-1.4 2.8.3 2.8s1.9-1.7 1.8-2.8a1.8 1.8 0 0 1 .3-1.4l4.4-6.3c1.6 1.3-1 7.1-1.5 8.1a4.2 4.2 0 0 0-.5 1.7c-1.5.8-2.4 3.8-2.4 3.8-3.5 1.2-3.4 5.6-3.4 5.6l-3.4-1.3v-.9a1 1 0 0 1 .6-1c1.8-1.1.5-6.1 0-7.4s-1.3-2.2-3.6-2.4-4.3 1.9-4.3 1.9 0-1-2.5-2.9l-1.7-1.1s1.3-1.5.4-4.9a11.7 11.7 0 0 1-.2-4.5 14 14 0 0 0 0-5c-.9-2.9-3.7-4.7-5.9-3.7s-2 .1-3 .3-3.7 2.9-4.1 6.2a15.3 15.3 0 0 1-2.8 7.3 10 10 0 0 0-1.1 5.7c-.6-.1-1.7 1-2 1.2s-.7.6-.8 0v-1.2c-.7-.9-1.2-2.4-4.9-2.6s-5 1.6-5.6 3.5a36.1 36.1 0 0 0-1.1 4.8 3.5 3.5 0 0 0 .7 2.8 2.8 2.8 0 0 1 1.3 2c0 1.3-3.8 3-6.6 3.7 0 0-3.1.9-4.1 3l-2 4.2a15.8 15.8 0 0 0-1.2 3.9S.8 70.7.8 74.3s.4 2.7.3 6.5-.6 4.2-.6 7.4.8 3.2.8 5.2-.7 2.5-.8 5.4l-.2 8.4-.3.7v2.9c0 10 4.3 19.6 16.5 19.6h128.8c3.1 0 5.6-1.1 8-1.1s2.5.5 6 .5 2.1-.2 6.5-.2 3.9.3 9.6.3 7.4-.6 10.4-.6 4.9.9 7.6.9 3.2-.5 6.3-.5 3.4.5 6.2.5 4.5-.6 7.4-.6 8.7.6 11.9.6 3.8-.7 6.3-.7h2.1c10.9 0 13.5-11.1 13.4-12.5a3.9 3.9 0 0 1 .4-3.1 7.2 7.2 0 0 0 0-5.4zM189.3 8.9l1.4-3.4s1.1.3 1.1 1.1-.6.8-.5 2.2a.6.6 0 0 0 .6-.2c.2-.2.5-.1.2.2s-1.3.5-1.3.8-.5.5-.5.5.2.4.6.4 1 0 .7.3l-.7.6c-1.1.9-2.1-1.5-1.6-2.5z"/><path fill="#fff" d="M26.5 82H23V66.1h4.2a7.7 7.7 0 0 1 5.5 2 7.7 7.7 0 0 1 2 5.4c0 5.6-2.7 8.5-8.2 8.5zm-.7-13.4v10.8h1.4a3.9 3.9 0 0 0 3.4-1.6 6.7 6.7 0 0 0 1.2-4.3c0-3.4-1.6-5.1-4.7-5.1zM47.4 77h-8.3a3.2 3.2 0 0 0 1 2.2 3.3 3.3 0 0 0 2.3.7 3.8 3.8 0 0 0 2.8-.9l1.1 2a6.7 6.7 0 0 1-4.3 1.2 6 6 0 0 1-4.2-1.5 6.2 6.2 0 0 1-1.5-4.4 6 6 0 0 1 1.7-4.4 5.3 5.3 0 0 1 4.1-1.7 5.5 5.5 0 0 1 4 1.5 5.2 5.2 0 0 1 1.5 3.8 5 5 0 0 1-.2 1.5zm-8.2-2h5.7a2.6 2.6 0 0 0-2.8-2.6c-1.6 0-2.5.9-2.9 2.6zm15.4 7.2h-1l-5.2-11.8h3l2.7 7.1 3-7.1H60zm6.1-6a6.4 6.4 0 0 1 1.6-4.4 5.1 5.1 0 0 1 4-1.6 5 5 0 0 1 4.1 1.6 6 6 0 0 1 1.5 4.4 6.3 6.3 0 0 1-1.5 4.4 6.1 6.1 0 0 1-8.2 0 6.3 6.3 0 0 1-1.5-4.4zm2.9 0c0 2.5.9 3.8 2.7 3.8a2.2 2.2 0 0 0 2-1 4.7 4.7 0 0 0 .8-2.8c0-2.6-.9-3.8-2.8-3.8a2.3 2.3 0 0 0-2 1 4.5 4.5 0 0 0-.7 2.8zM81.5 82v-6.7a4.2 4.2 0 0 0-.5-2.2 2.6 2.6 0 0 0-1.9-.7 2.4 2.4 0 0 0-1.3.4 2.7 2.7 0 0 0-1 .8V82h-2.7V70.4H76l.5 1.1a3.9 3.9 0 0 1 3.3-1.3 4.4 4.4 0 0 1 3.2 1.2 4.8 4.8 0 0 1 1.2 3.5V82zm23.4-15l-1.2 2.3a4.4 4.4 0 0 0-6.3.7 7 7 0 0 0-1.2 4.2 7.1 7.1 0 0 0 1.1 4.1 3.9 3.9 0 0 0 3.2 1.5 4.5 4.5 0 0 0 3.5-1.6l1.3 2.2a7.4 7.4 0 0 1-10.2-.3 9.4 9.4 0 0 1-1.9-6 8.7 8.7 0 0 1 2.1-5.9 6.4 6.4 0 0 1 5.2-2.4 7.4 7.4 0 0 1 4.4 1.2zm1.6 9.2a6.3 6.3 0 0 1 1.5-4.4 6.1 6.1 0 0 1 8.2 0 6.4 6.4 0 0 1 1.4 4.4 6.3 6.3 0 0 1-1.5 4.4 5.1 5.1 0 0 1-4 1.6 5.4 5.4 0 0 1-4.2-1.6 6.8 6.8 0 0 1-1.4-4.4zm2.8 0c0 2.5.9 3.8 2.8 3.8a2.3 2.3 0 0 0 2-1 4.7 4.7 0 0 0 .7-2.8c0-2.6-.9-3.8-2.7-3.8a2.4 2.4 0 0 0-2.1 1 4.5 4.5 0 0 0-.7 2.8zM133 82v-7.3c0-1.5-.6-2.3-2-2.3a2.8 2.8 0 0 0-1.2.4 3 3 0 0 0-.8.8V82h-2.7v-7.7a1.7 1.7 0 0 0-.5-1.4 2.5 2.5 0 0 0-1.5-.5 3 3 0 0 0-1.1.4 3.6 3.6 0 0 0-.9.8V82h-2.7V70.4h1.9l.5 1a4 4 0 0 1 2.9-1.2 4.6 4.6 0 0 1 3.5 1.2 3.4 3.4 0 0 1 1.4-.9 6.3 6.3 0 0 1 1.9-.3 3.7 3.7 0 0 1 3 1.1 4.1 4.1 0 0 1 1.1 3V82zm18.9 0v-7.3c0-1.5-.6-2.3-2-2.3a2.8 2.8 0 0 0-1.2.4 2 2 0 0 0-.8.8V82h-2.7v-7.7a2.2 2.2 0 0 0-.5-1.4 2.5 2.5 0 0 0-1.5-.5 3 3 0 0 0-1.1.4 3.6 3.6 0 0 0-.9.8V82h-2.7V70.4h1.9l.5 1a3.8 3.8 0 0 1 2.9-1.2 4.6 4.6 0 0 1 3.5 1.2 2.8 2.8 0 0 1 1.4-.9l1.8-.3a4.1 4.1 0 0 1 3.1 1.1 4 4 0 0 1 1 3V82zm13 0v-1l-1.6.9-1.9.3c-2.7 0-4-1.4-4-4.3v-7.5h2.7v7.3c0 1.5.7 2.2 2 2.2a3.3 3.3 0 0 0 1.7-.4 3.8 3.8 0 0 0 1.1-1.1v-8h2.7V82zm12.9 0v-6.7a3.4 3.4 0 0 0-.6-2.2 2.5 2.5 0 0 0-1.8-.7 2.2 2.2 0 0 0-1.3.4 3.1 3.1 0 0 0-1.1.8V82h-2.7V70.4h2l.5 1.1a3.8 3.8 0 0 1 3.2-1.3 4.5 4.5 0 0 1 3.3 1.2 4.8 4.8 0 0 1 1.2 3.5V82zm6.2 0v-9.4h-1.5v-2.2h4.2V82zm1.4-16.1a1.5 1.5 0 0 1 1.1.4 1.7 1.7 0 0 1 .4 1.2 1.4 1.4 0 0 1-1.5 1.5 1.4 1.4 0 0 1-1.1-.4 1.6 1.6 0 0 1-.5-1.1 1.8 1.8 0 0 1 .5-1.2 1.4 1.4 0 0 1 1.1-.4zm4.7 6.7h-1.3v-2.2h1.3V68l2.7-1v3.4h3.2v2.2h-3.2v5a2.6 2.6 0 0 0 .4 1.8 1.8 1.8 0 0 0 1.4.5 4.1 4.1 0 0 0 1.8-.5v2.5a9.1 9.1 0 0 1-2.7.3 3.5 3.5 0 0 1-2.7-1 3.9 3.9 0 0 1-.9-2.8zM199 82v-9.4h-1.5v-2.2h4.3V82zm1.4-16.1a1.4 1.4 0 0 1 1.1.4 1.8 1.8 0 0 1 .5 1.2 1.6 1.6 0 0 1-.5 1.1 1.4 1.4 0 0 1-1.1.4 1.4 1.4 0 0 1-1.5-1.5 1.7 1.7 0 0 1 .4-1.2 1.5 1.5 0 0 1 1.1-.4zM215.1 77h-8.3a3.2 3.2 0 0 0 1 2.2 3.3 3.3 0 0 0 2.3.7 3.8 3.8 0 0 0 2.8-.9l1.1 2a6.7 6.7 0 0 1-4.3 1.2 6 6 0 0 1-4.2-1.5 6.2 6.2 0 0 1-1.5-4.4 6 6 0 0 1 1.7-4.4 5.3 5.3 0 0 1 4.1-1.7 5.5 5.5 0 0 1 4 1.5 5.2 5.2 0 0 1 1.5 3.8 5 5 0 0 1-.2 1.5zm-8.2-2h5.7a2.6 2.6 0 0 0-2.8-2.6c-1.5 0-2.5.9-2.9 2.6zm9.7 6.2l1-2.1a4.4 4.4 0 0 0 2.7.9c1.1 0 1.6-.3 1.6-1.1a1.6 1.6 0 0 0-.5-1.1l-1.8-1c-2-.8-3-2-3-3.4a2.8 2.8 0 0 1 1.1-2.4 4.7 4.7 0 0 1 2.9-.8 6.3 6.3 0 0 1 3.4.8l-.7 2.1a3.7 3.7 0 0 0-2.5-.8c-.9 0-1.4.4-1.4 1.2a1.2 1.2 0 0 0 .4.8l2 .9a4.3 4.3 0 0 1 2.2 1.5 2.7 2.7 0 0 1 .7 2 3.1 3.1 0 0 1-1.2 2.6 5.3 5.3 0 0 1-3.2.9l-1.9-.2a6.7 6.7 0 0 1-1.8-.8zM84.7 94.3v13.4h-2.8V94.3h-5v-2.5H90v2.5zm3.4 7.6a6.1 6.1 0 0 1 1.5-4.3 5 5 0 0 1 4.1-1.7 5.3 5.3 0 0 1 4.1 1.6 6.6 6.6 0 0 1 1.4 4.4 6.3 6.3 0 0 1-1.5 4.4 5.1 5.1 0 0 1-4 1.6 5.4 5.4 0 0 1-4.2-1.6 6.8 6.8 0 0 1-1.4-4.4zm2.8 0c0 2.5.9 3.8 2.8 3.8a2.3 2.3 0 0 0 2-1 4.5 4.5 0 0 0 .7-2.8c0-2.5-.9-3.8-2.7-3.8a2.4 2.4 0 0 0-2.1 1 4.7 4.7 0 0 0-.7 2.8zm9.6 8.8l1.7-2.1a5 5 0 0 0 3.2 1.3 3.6 3.6 0 0 0 1.9-.4c.5-.2.8-.5.8-.9s-.6-1.1-1.7-1.1l-1.3.2h-1.4c-1.9 0-2.8-.7-2.8-2a2.1 2.1 0 0 1 .5-1.2 3.1 3.1 0 0 1 1.1-.8 4.3 4.3 0 0 1-.7-6.7 5 5 0 0 1 3.4-1.2 5.3 5.3 0 0 1 2.6.6l1.1-1.3 1.8 1.7-1.2 1a4.3 4.3 0 0 1 .6 2.4 4.1 4.1 0 0 1-1.2 3.1 4.1 4.1 0 0 1-3 1.2h-1.3l-.5.2c-.4.2-.5.4-.5.5s.2.5.7.5l1.1-.2 1.4-.2c2.6 0 3.9 1.1 3.9 3.2a3.2 3.2 0 0 1-1.5 2.8 8.1 8.1 0 0 1-3.9 1 8.6 8.6 0 0 1-4.8-1.6zm2.7-10.5a2.2 2.2 0 0 0 2.1 2.3 1.6 1.6 0 0 0 1.5-.7 2.1 2.1 0 0 0 .5-1.6 2 2 0 0 0-.5-1.5 2.1 2.1 0 0 0-3.6 1.5zm19.7 2.5h-8.3a2.7 2.7 0 0 0 1 2.2 3.2 3.2 0 0 0 2.3.8 4 4 0 0 0 2.8-1l1.1 2.1a7.4 7.4 0 0 1-4.3 1.1 5.7 5.7 0 0 1-4.2-1.5 6.2 6.2 0 0 1-1.5-4.4 5.8 5.8 0 0 1 5.7-6.1 5.6 5.6 0 0 1 4.1 1.5 5.2 5.2 0 0 1 1.5 3.8 10.4 10.4 0 0 1-.2 1.5zm-8.2-2h5.7a2.5 2.5 0 0 0-2.8-2.5c-1.6 0-2.5.8-2.9 2.5zm11-2.4h-1.4v-2.2h1.4v-2.4l2.7-1v3.4h3.2v2.2h-3.2v5.1a2.5 2.5 0 0 0 .4 1.7c.2.4.7.5 1.4.5a3.1 3.1 0 0 0 1.8-.5v2.5a9.6 9.6 0 0 1-2.7.3 3.3 3.3 0 0 1-2.7-1 3.7 3.7 0 0 1-.9-2.7zm15.9 9.4v-7.1a2.3 2.3 0 0 0-.7-1.8 2.4 2.4 0 0 0-1.7-.6 3.5 3.5 0 0 0-1.4.3 3 3 0 0 0-1 .9v8.3h-2.7V91.8l2.7-.7v5.7a4.4 4.4 0 0 1 2.9-.9 4.5 4.5 0 0 1 3.4 1.2 4.8 4.8 0 0 1 1.2 3.5v7.1zm16-5h-8.3a2.7 2.7 0 0 0 1 2.2 3.2 3.2 0 0 0 2.3.8 4 4 0 0 0 2.8-1l1.1 2.1a7.4 7.4 0 0 1-4.3 1.1 5.7 5.7 0 0 1-4.2-1.5 6.2 6.2 0 0 1-1.5-4.4 5.8 5.8 0 0 1 5.7-6.1 5.6 5.6 0 0 1 4.1 1.5 5.2 5.2 0 0 1 1.5 3.8 10.4 10.4 0 0 1-.2 1.5zm-8.2-2h5.7a2.5 2.5 0 0 0-2.8-2.5c-1.6 0-2.5.8-2.9 2.5zm17.3-2.1a2.9 2.9 0 0 0-1.6-.4 2.1 2.1 0 0 0-1.7.8 3.1 3.1 0 0 0-.7 2.1v6.6H160V96.1h2.7v1.1a3.7 3.7 0 0 1 3-1.3 4.1 4.1 0 0 1 2.1.4z"/></svg>
